Coordinates
version=1
nRows=17
nColumns=36
inDegrees=yes

Units are S.I. units (second, meters, Newtons, ...)
If the header above contains a line with 'inDegrees', this indicates whether rotational values are in degrees (yes) or radians (no).

endheader
time	pelvis_tilt	pelvis_list	pelvis_rotation	pelvis_tx	pelvis_ty	pelvis_tz	hip_flexion_r	hip_adduction_r	hip_rotation_r	knee_angle_r	knee_angle_r_beta	ankle_angle_r	subtalar_angle_r	mtp_angle_r	hip_flexion_l	hip_adduction_l	hip_rotation_l	knee_angle_l	knee_angle_l_beta	ankle_angle_l	subtalar_angle_l	mtp_angle_l	lumbar_extension	lumbar_bending	lumbar_rotation	arm_flex_r	arm_add_r	arm_rot_r	elbow_flex_r	pro_sup_r	arm_flex_l	arm_add_l	arm_rot_l	elbow_flex_l	pro_sup_l
      2.96666670	    -28.37542161	      1.42743960	     -0.10152315	      0.15744135	      0.67950003	     -0.10489567	     82.70829118	     -3.15164736	      4.32445356	     81.29455831	      1.41885771	     28.69665919	     -9.63847278	     -7.49999987	     79.21978863	      0.52110568	      6.43347400	     86.33151346	      1.50676916	     29.44830081	    -14.35917574	     -7.49999987	    -21.12435272	     -0.35720702	      0.18377992	      8.09110840	    -22.21285218	     -2.83433339	     48.82152730	     81.70459586	     17.77798323	    -33.57827599	     17.42996174	     36.65781800	     65.70187946
      2.97083330	    -28.91746765	      1.51103280	     -0.04552791	      0.16203856	      0.67698326	     -0.10625506	     83.34685496	     -3.25480021	      4.49188990	     81.68370286	      1.42564956	     29.20688840	     -8.74176124	     -7.49999987	     79.72518208	      0.67882720	      6.39425819	     86.51792325	      1.51002262	     29.56300596	    -14.22787160	     -7.49999987	    -20.69902150	     -0.31892317	      0.12681231	      6.92585262	    -21.48095010	     -3.48089204	     46.99193300	     81.52690455	     16.47373727	    -32.43223864	     17.56050042	     35.73117899	     65.64390872
      2.97500000	    -28.68751702	      1.56471675	     -0.01803349	      0.16271584	      0.67619703	     -0.10403328	     83.11481952	     -3.12463039	      4.50238155	     81.97933345	      1.43080929	     29.21253912	     -9.00770284	     -7.49999987	     79.58146787	      0.62693603	      6.42768387	     86.95130066	      1.51758649	     29.62097264	    -14.31834480	     -7.49999987	    -21.49558604	     -0.53307814	      0.01836417	      5.44605952	    -20.71084019	     -3.33011930	     46.93937390	     80.92544531	     15.26662067	    -31.83712804	     17.70970166	     35.97460365	     65.44847729
      2.97916670	    -29.33929829	      1.58404335	      0.01857793	      0.16231894	      0.67773388	     -0.10705253	     83.76626329	     -3.13739333	      4.55080590	     81.98350744	      1.43088214	     28.98370838	     -9.04525298	     -7.49999987	     80.19864977	      0.77867211	      6.41835054	     87.01099029	      1.51862827	     29.63639241	    -13.95656747	     -7.49999987	    -20.98673164	     -0.44312920	     -0.05675612	      4.64812624	    -19.67433854	     -4.03231672	     44.77088368	     80.73189715	     14.16247098	    -30.52509352	     17.60132052	     34.80705779	     65.33813739
      2.98333330	    -29.47499759	      1.52797941	      0.09404497	      0.16434551	      0.67622116	     -0.10374418	     83.76749104	     -3.00014584	      4.51396409	     82.02806263	      1.43165977	     29.17359078	     -8.64799183	     -7.49999987	     80.23808352	      0.66170806	      6.45919409	     86.94494386	      1.51747554	     29.56352142	    -13.76358550	     -7.49999987	    -21.15562741	     -0.46873726	     -0.09212535	      3.55678407	    -18.76323505	     -4.23876017	     43.35436549	     80.33948590	     13.10205497	    -29.66128301	     17.60356383	     34.40841149	     65.20800545
      2.98750000	    -29.72372501	      1.33566756	      0.27887933	      0.16465199	      0.67494458	     -0.09890460	     84.01946139	     -2.78066860	      4.29617504	     82.26553116	      1.43580438	     29.21016953	     -9.05898432	     -7.49999987	     80.57700005	      0.43188236	      6.71951917	     87.20024974	      1.52193147	     29.37557453	    -13.76735026	     -7.49999987	    -21.29545418	     -0.45602438	     -0.21772726	      2.35116643	    -17.43131526	     -4.64228167	     42.05256391	     79.88633035	     11.97069475	    -29.26487999	     17.68463513	     34.29082962	     65.08382898
      2.99166670	    -29.95735329	      1.28532041	      0.30031408	      0.16401593	      0.67446589	     -0.10062669	     84.31841968	     -2.60533113	      4.24884609	     82.34993674	      1.43727753	     29.10378542	     -9.21664353	     -7.49999987	     80.93017949	      0.35593763	      6.84105114	     87.29613743	      1.52360502	     29.05491431	    -13.61157546	     -7.49999987	    -21.26279165	     -0.50115671	     -0.13502842	      1.23446750	    -16.42334227	     -5.18269109	     40.95780134	     79.10117619	     10.74348631	    -28.75235380	     17.70731474	     34.62507096	     64.83095568
      2.99583330	    -30.11975498	      1.28723875	      0.26549030	      0.16608112	      0.67504081	     -0.10154649	     84.49321365	     -2.51343699	      4.20542075	     82.39382148	      1.43804347	     28.94241949	     -9.49476097	     -7.49999987	     81.01311935	      0.33846157	      6.92898409	     87.18330070	      1.52163565	     28.84442499	    -13.50713644	     -7.49999987	    -21.26729155	     -0.47715133	     -0.27444617	      0.61065047	    -15.43993871	     -6.31448218	     39.48692855	     78.49603887	      9.46205166	    -27.99533471	     17.50342006	     34.49527606	     64.59919284
      3.00000000	    -30.02738278	      1.33387855	      0.26508510	      0.16969876	      0.67874762	     -0.10211286	     84.04080012	     -2.51757647	      4.24198914	     82.14468639	      1.43369524	     28.76050241	    -10.03709484	     -7.49999987	     80.54440276	      0.43460245	      6.83915698	     86.92735771	      1.51716860	     28.56058393	    -13.91186417	     -7.49999987	    -21.65583883	     -0.49226399	     -0.31066922	      0.17766768	    -14.39258686	     -7.82792899	     37.92055703	     77.92182123	      8.41556241	    -26.90631637	     17.10049742	     34.03895132	     64.26768869
      3.00416670	    -29.67890058	      1.24784190	      0.26230840	      0.17318023	      0.68028019	     -0.10191536	     83.16984075	     -2.41735016	      4.25149891	     81.81355133	      1.42791584	     28.80137732	    -10.31357719	     -7.49999987	     79.73381298	      0.42381737	      6.89118095	     86.64011949	      1.51215535	     28.62990050	    -14.10791623	     -7.49999987	    -22.83108439	     -0.21867842	     -0.18688434	     -0.79994280	    -13.87633901	     -7.81510054	     38.77372697	     76.95312528	      7.26872640	    -26.22461846	     17.17161685	     35.08652330	     63.97964207
      3.00833330	    -29.86286533	      1.27980876	      0.37301887	      0.17051714	      0.67882500	     -0.09969521	     83.37085328	     -2.39576663	      4.31591522	     81.88993625	      1.42924901	     28.45833472	    -11.03483205	     -7.49999987	     79.87251213	      0.46919489	      6.89445731	     86.60250962	      1.51149893	     28.86185016	    -13.96706494	     -7.49999987	    -22.65815943	     -0.18615196	     -0.48524594	     -0.08492291	    -12.28632608	    -10.38257193	     34.96292295	     76.67878604	      6.69421670	    -25.12586455	     16.95486464	     33.22032180	     63.78995215
      3.01250000	    -29.72856375	      1.17348225	      0.32448405	      0.17177676	      0.68142730	     -0.10166657	     83.05553626	     -2.34371445	      4.23834532	     81.67340780	      1.42546988	     28.23610854	    -11.31513485	     -7.49999987	     79.63569086	      0.46136904	      7.01523014	     86.42343753	      1.50837354	     28.27521356	    -14.21581226	     -7.49999987	    -23.09976395	     -0.01128142	     -0.78191939	     -0.61842771	    -11.19571303	    -12.76107086	     34.09828028	     76.20476782	      5.74856959	    -24.38006465	     16.62999809	     32.77568015	     63.56161327
      3.01666670	    -29.64605599	      1.12193675	      0.38878263	      0.17185727	      0.68155256	     -0.09804133	     82.87724887	     -2.17743181	      4.17697965	     81.52966838	      1.42296115	     27.85400611	    -11.99380764	     -7.49999987	     79.55353821	      0.28060138	      7.09144732	     86.34717099	      1.50704243	     28.13658573	    -13.96222768	     -7.49999987	    -23.65962566	     -0.05347294	     -1.26871494	     -1.61205010	     -9.59853613	    -15.78776372	     34.55972550	     75.34465954	      4.64477910	    -24.05056877	     16.15398618	     32.66700065	     63.23466457
      3.02083330	    -29.50630937	      0.96434509	      0.27211675	      0.17110558	      0.68032228	     -0.09861533	     82.84501120	     -1.88362515	      4.06860343	     81.65289429	      1.42511185	     27.80048490	    -12.37556420	     -7.49999987	     79.52821113	      0.04282690	      7.19849974	     86.39185364	      1.50782229	     28.16714976	    -13.94680684	     -7.49999987	    -24.28803280	     -0.01657672	     -0.85141100	     -3.45017194	     -8.03123241	    -22.08477860	     37.00548005	     75.19487335	      4.25242265	    -23.25366471	     15.17129928	     33.01907807	     62.98126478
      3.02500000	    -29.38561368	      0.78637905	      0.32129312	      0.17306813	      0.67991620	     -0.09960360	     82.72314345	     -1.81225728	      3.99716692	     81.77264409	      1.42720188	     27.98062076	    -12.14891297	     -7.49999987	     79.44380211	     -0.06290455	      7.17439306	     86.50158033	      1.50973738	     28.40826606	    -13.93439930	     -7.49999987	    -24.67174910	      0.12853503	     -0.71125023	     -4.75747582	     -7.11466485	    -26.56902032	     38.52006635	     79.92713041	      4.26585060	    -22.76015718	     18.03574372	     32.08097384	     63.29913976
      3.02916670	    -29.14883174	      0.73776670	      0.24522804	      0.17332608	      0.68222398	     -0.10034243	     82.36106501	     -1.75444616	      3.94858115	     81.61969676	      1.42453244	     27.93701448	    -12.16608628	     -7.49999987	     79.07768213	     -0.17477624	      7.05625312	     86.47271397	      1.50923357	     28.45620144	    -13.92128987	     -7.49999987	    -25.45072867	      0.00562563	     -1.00953872	     -5.28594195	     -7.16361740	    -26.82770450	     39.40556641	     79.12508624	      3.44389882	    -22.06146137	     18.17823208	     32.93376882	     63.15368822
      3.03333330	    -29.37285910	      0.73696930	      0.11452860	      0.17271167	      0.68277808	     -0.09730952	     82.50654969	     -1.50885012	      3.99859659	     81.45321023	      1.42162670	     27.92587795	    -11.83371420	     -7.49999987	     79.25747116	     -0.41284565	      7.01358705	     86.34727525	      1.50704425	     28.28394410	    -13.74088335	     -7.49999987	    -25.50765490	     -0.15457664	     -1.91365190	     -5.34583266	     -6.69618058	    -28.58657966	     40.54859005	     78.40867292	      2.24006888	    -21.51346830	     18.06191480	     32.36874243	     62.93201125
